<svg width="16" height="16" viewBox="0 0 16 16" fill="none" xmlns="http://www.w3.org/2000/svg">
    <path fill-rule="evenodd" clip-rule="evenodd" d="M7.5 0C7.69891 0 7.88968 0.0790176 8.03033 0.21967C8.17098 0.360322 8.25 0.551088 8.25 0.75V3H11.884C12.298 3 12.698 3.147 13.014 3.414L15.084 5.164C15.2782 5.32828 15.4342 5.53291 15.5412 5.76364C15.6482 5.99437 15.7037 6.24566 15.7037 6.5C15.7037 6.75434 15.6482 7.00563 15.5412 7.23636C15.4342 7.46709 15.2782 7.67172 15.084 7.836L13.014 9.586C12.6981 9.85325 12.2978 9.99993 11.884 10H8.25V15.25C8.25 15.4489 8.17098 15.6397 8.03033 15.7803C7.88968 15.921 7.69891 16 7.5 16C7.30109 16 7.11032 15.921 6.96967 15.7803C6.82902 15.6397 6.75 15.4489 6.75 15.25V10H2.5C2.03587 10 1.59075 9.81563 1.26256 9.48744C0.934374 9.15925 0.75 8.71413 0.75 8.25V4.75C0.75 3.784 1.534 3 2.5 3H6.75V0.75C6.75 0.551088 6.82902 0.360322 6.96967 0.21967C7.11032 0.0790176 7.30109 0 7.5 0ZM7.5 8.5H11.884C11.9431 8.49965 12.0001 8.47839 12.045 8.44L14.115 6.69C14.1424 6.66653 14.1645 6.63739 14.1796 6.60459C14.1947 6.57179 14.2025 6.53611 14.2025 6.5C14.2025 6.46389 14.1947 6.42821 14.1796 6.39541C14.1645 6.36261 14.1424 6.33347 14.115 6.31L12.045 4.56C12.0001 4.52161 11.9431 4.50035 11.884 4.5H2.5C2.4337 4.5 2.37011 4.52634 2.32322 4.57322C2.27634 4.62011 2.25 4.6837 2.25 4.75V8.25C2.25 8.388 2.362 8.5 2.5 8.5H7.5Z" fill="#4E4B66"/>
</svg>